<mxfile host="Electron" modified="2024-04-20T18:59:08.172Z" agent="Mozilla/5.0 (Windows NT 10.0; Win64; x64) AppleWebKit/537.36 (KHTML, like Gecko) draw.io/24.1.0 Chrome/120.0.6099.109 Electron/28.1.0 Safari/537.36" etag="HEnLcs5RHF7jOEPPJox9" version="24.1.0" type="device">
  <diagram name="Sayfa -1" id="u-q5DB2SpsoOixhaZaZY">
    <mxGraphModel dx="998" dy="828" grid="1" gridSize="10" guides="1" tooltips="1" connect="1" arrows="1" fold="1" page="1" pageScale="1" pageWidth="827" pageHeight="1169" math="0" shadow="0">
      <root>
        <mxCell id="0" />
        <mxCell id="1" parent="0" />
        <mxCell id="4dMRSHH_C_iCPXwdmy3N-107" value="" style="edgeStyle=orthogonalEdgeStyle;rounded=0;orthogonalLoop=1;jettySize=auto;html=1;strokeColor=#ff0000;" parent="1" source="4dMRSHH_C_iCPXwdmy3N-100" target="4dMRSHH_C_iCPXwdmy3N-106" edge="1">
          <mxGeometry relative="1" as="geometry" />
        </mxCell>
        <mxCell id="4dMRSHH_C_iCPXwdmy3N-100" value="1.1.1.&lt;div&gt;(1)&lt;/div&gt;" style="verticalLabelPosition=middle;verticalAlign=middle;html=1;shape=mxgraph.basic.patternFillRect;fillStyle=diag;step=5;fillStrokeWidth=0.2;fillStrokeColor=#dddddd;fillColor=#f8cecc;strokeColor=#b85450;align=center;labelPosition=center;" parent="1" vertex="1">
          <mxGeometry x="111" y="190" width="50" height="50" as="geometry" />
        </mxCell>
        <mxCell id="4dMRSHH_C_iCPXwdmy3N-115" value="" style="edgeStyle=orthogonalEdgeStyle;rounded=0;orthogonalLoop=1;jettySize=auto;html=1;" parent="1" source="4dMRSHH_C_iCPXwdmy3N-105" target="4dMRSHH_C_iCPXwdmy3N-100" edge="1">
          <mxGeometry relative="1" as="geometry" />
        </mxCell>
        <mxCell id="4dMRSHH_C_iCPXwdmy3N-105" value="0" style="ellipse;whiteSpace=wrap;html=1;aspect=fixed;" parent="1" vertex="1">
          <mxGeometry x="20" y="185" width="60" height="60" as="geometry" />
        </mxCell>
        <mxCell id="4dMRSHH_C_iCPXwdmy3N-109" value="" style="edgeStyle=orthogonalEdgeStyle;rounded=0;orthogonalLoop=1;jettySize=auto;html=1;strokeColor=#ff0000;" parent="1" source="4dMRSHH_C_iCPXwdmy3N-106" target="4dMRSHH_C_iCPXwdmy3N-108" edge="1">
          <mxGeometry relative="1" as="geometry" />
        </mxCell>
        <mxCell id="4dMRSHH_C_iCPXwdmy3N-106" value="1.1.2.&lt;div&gt;(2)&lt;/div&gt;" style="verticalLabelPosition=middle;verticalAlign=middle;html=1;shape=mxgraph.basic.patternFillRect;fillStyle=diag;step=5;fillStrokeWidth=0.2;fillStrokeColor=#dddddd;fillColor=#f8cecc;strokeColor=#b85450;align=center;labelPosition=center;" parent="1" vertex="1">
          <mxGeometry x="200" y="190" width="50" height="50" as="geometry" />
        </mxCell>
        <mxCell id="4dMRSHH_C_iCPXwdmy3N-112" value="" style="edgeStyle=orthogonalEdgeStyle;rounded=0;orthogonalLoop=1;jettySize=auto;html=1;strokeColor=#ff0000;" parent="1" source="4dMRSHH_C_iCPXwdmy3N-108" target="4dMRSHH_C_iCPXwdmy3N-111" edge="1">
          <mxGeometry relative="1" as="geometry" />
        </mxCell>
        <mxCell id="4dMRSHH_C_iCPXwdmy3N-108" value="1.1.3.&lt;div&gt;(1)&lt;/div&gt;" style="verticalLabelPosition=middle;verticalAlign=middle;html=1;shape=mxgraph.basic.patternFillRect;fillStyle=diag;step=5;fillStrokeWidth=0.2;fillStrokeColor=#dddddd;fillColor=#f8cecc;strokeColor=#b85450;align=center;labelPosition=center;" parent="1" vertex="1">
          <mxGeometry x="290" y="190" width="50" height="50" as="geometry" />
        </mxCell>
        <mxCell id="4dMRSHH_C_iCPXwdmy3N-114" value="" style="edgeStyle=orthogonalEdgeStyle;rounded=0;orthogonalLoop=1;jettySize=auto;html=1;strokeColor=#ff0000;" parent="1" source="4dMRSHH_C_iCPXwdmy3N-111" target="4dMRSHH_C_iCPXwdmy3N-113" edge="1">
          <mxGeometry relative="1" as="geometry" />
        </mxCell>
        <mxCell id="4dMRSHH_C_iCPXwdmy3N-111" value="1.2.1.&lt;div&gt;(2)&lt;/div&gt;" style="verticalLabelPosition=middle;verticalAlign=middle;html=1;shape=mxgraph.basic.patternFillRect;fillStyle=diag;step=5;fillStrokeWidth=0.2;fillStrokeColor=#dddddd;fillColor=#dae8fc;strokeColor=#6c8ebf;align=center;labelPosition=center;" parent="1" vertex="1">
          <mxGeometry x="370" y="190" width="50" height="50" as="geometry" />
        </mxCell>
        <mxCell id="4dMRSHH_C_iCPXwdmy3N-117" value="" style="edgeStyle=orthogonalEdgeStyle;rounded=0;orthogonalLoop=1;jettySize=auto;html=1;strokeColor=#ff0000;" parent="1" source="4dMRSHH_C_iCPXwdmy3N-113" target="4dMRSHH_C_iCPXwdmy3N-116" edge="1">
          <mxGeometry relative="1" as="geometry" />
        </mxCell>
        <mxCell id="4dMRSHH_C_iCPXwdmy3N-113" value="1.2.2.&lt;div&gt;(2)&lt;/div&gt;" style="verticalLabelPosition=middle;verticalAlign=middle;html=1;shape=mxgraph.basic.patternFillRect;fillStyle=diag;step=5;fillStrokeWidth=0.2;fillStrokeColor=#dddddd;fillColor=#dae8fc;strokeColor=#6c8ebf;align=center;labelPosition=center;" parent="1" vertex="1">
          <mxGeometry x="450" y="190" width="50" height="50" as="geometry" />
        </mxCell>
        <mxCell id="4dMRSHH_C_iCPXwdmy3N-119" value="" style="edgeStyle=orthogonalEdgeStyle;rounded=0;orthogonalLoop=1;jettySize=auto;html=1;strokeColor=#ff0000;" parent="1" source="4dMRSHH_C_iCPXwdmy3N-116" target="4dMRSHH_C_iCPXwdmy3N-118" edge="1">
          <mxGeometry relative="1" as="geometry" />
        </mxCell>
        <mxCell id="4dMRSHH_C_iCPXwdmy3N-116" value="1.3.1.&lt;div&gt;(2)&lt;/div&gt;" style="verticalLabelPosition=middle;verticalAlign=middle;html=1;shape=mxgraph.basic.patternFillRect;fillStyle=diag;step=5;fillStrokeWidth=0.2;fillStrokeColor=#dddddd;fillColor=#d5e8d4;strokeColor=#82b366;align=center;labelPosition=center;" parent="1" vertex="1">
          <mxGeometry x="530" y="190" width="50" height="50" as="geometry" />
        </mxCell>
        <mxCell id="4dMRSHH_C_iCPXwdmy3N-118" value="1.3.2.&lt;div&gt;(2)&lt;/div&gt;" style="verticalLabelPosition=middle;verticalAlign=middle;html=1;shape=mxgraph.basic.patternFillRect;fillStyle=diag;step=5;fillStrokeWidth=0.2;fillStrokeColor=#dddddd;fillColor=#d5e8d4;strokeColor=#82b366;align=center;labelPosition=center;" parent="1" vertex="1">
          <mxGeometry x="610" y="190" width="50" height="50" as="geometry" />
        </mxCell>
        <mxCell id="4dMRSHH_C_iCPXwdmy3N-120" value="1.4.1.&lt;div&gt;(1)&lt;/div&gt;" style="verticalLabelPosition=middle;verticalAlign=middle;html=1;shape=mxgraph.basic.patternFillRect;fillStyle=diag;step=5;fillStrokeWidth=0.2;fillStrokeColor=#dddddd;fillColor=#ffe6cc;strokeColor=#d79b00;align=center;labelPosition=center;" parent="1" vertex="1">
          <mxGeometry x="690" y="135" width="50" height="50" as="geometry" />
        </mxCell>
        <mxCell id="4dMRSHH_C_iCPXwdmy3N-127" value="" style="edgeStyle=orthogonalEdgeStyle;rounded=0;orthogonalLoop=1;jettySize=auto;html=1;strokeColor=#ff0000;" parent="1" source="4dMRSHH_C_iCPXwdmy3N-124" target="4dMRSHH_C_iCPXwdmy3N-126" edge="1">
          <mxGeometry relative="1" as="geometry" />
        </mxCell>
        <mxCell id="4dMRSHH_C_iCPXwdmy3N-124" value="1.4.2.&lt;div&gt;(2)&lt;/div&gt;" style="verticalLabelPosition=middle;verticalAlign=middle;html=1;shape=mxgraph.basic.patternFillRect;fillStyle=diag;step=5;fillStrokeWidth=0.2;fillStrokeColor=#dddddd;fillColor=#ffe6cc;strokeColor=#d79b00;align=center;labelPosition=center;" parent="1" vertex="1">
          <mxGeometry x="690" y="245" width="50" height="50" as="geometry" />
        </mxCell>
        <mxCell id="4dMRSHH_C_iCPXwdmy3N-126" value="1.4.3.&lt;div&gt;(3)&lt;/div&gt;" style="verticalLabelPosition=middle;verticalAlign=middle;html=1;shape=mxgraph.basic.patternFillRect;fillStyle=diag;step=5;fillStrokeWidth=0.2;fillStrokeColor=#dddddd;fillColor=#ffe6cc;strokeColor=#d79b00;align=center;labelPosition=center;" parent="1" vertex="1">
          <mxGeometry x="770" y="190" width="50" height="50" as="geometry" />
        </mxCell>
        <mxCell id="4dMRSHH_C_iCPXwdmy3N-128" style="edgeStyle=orthogonalEdgeStyle;rounded=0;orthogonalLoop=1;jettySize=auto;html=1;entryX=0.5;entryY=0;entryDx=0;entryDy=0;entryPerimeter=0;" parent="1" source="4dMRSHH_C_iCPXwdmy3N-120" target="4dMRSHH_C_iCPXwdmy3N-126" edge="1">
          <mxGeometry relative="1" as="geometry" />
        </mxCell>
        <mxCell id="4dMRSHH_C_iCPXwdmy3N-129" value="1.5.1.&lt;div&gt;(3)&lt;/div&gt;" style="verticalLabelPosition=middle;verticalAlign=middle;html=1;shape=mxgraph.basic.patternFillRect;fillStyle=diag;step=5;fillStrokeWidth=0.2;fillStrokeColor=#dddddd;fillColor=#e1d5e7;strokeColor=#9673a6;align=center;labelPosition=center;" parent="1" vertex="1">
          <mxGeometry x="860" y="135" width="50" height="50" as="geometry" />
        </mxCell>
        <mxCell id="4dMRSHH_C_iCPXwdmy3N-138" value="" style="edgeStyle=orthogonalEdgeStyle;rounded=0;orthogonalLoop=1;jettySize=auto;html=1;strokeColor=#FF0000;entryX=-0.03;entryY=0.254;entryDx=0;entryDy=0;entryPerimeter=0;" parent="1" source="4dMRSHH_C_iCPXwdmy3N-132" target="4dMRSHH_C_iCPXwdmy3N-137" edge="1">
          <mxGeometry relative="1" as="geometry" />
        </mxCell>
        <mxCell id="4dMRSHH_C_iCPXwdmy3N-132" value="1.6.1.&lt;div&gt;(4)&lt;/div&gt;" style="verticalLabelPosition=middle;verticalAlign=middle;html=1;shape=mxgraph.basic.patternFillRect;fillStyle=diag;step=5;fillStrokeWidth=0.2;fillStrokeColor=#dddddd;align=center;labelPosition=center;fillColor=#bac8d3;strokeColor=#23445d;" parent="1" vertex="1">
          <mxGeometry x="860" y="240" width="50" height="50" as="geometry" />
        </mxCell>
        <mxCell id="4dMRSHH_C_iCPXwdmy3N-139" style="edgeStyle=orthogonalEdgeStyle;rounded=0;orthogonalLoop=1;jettySize=auto;html=1;exitX=1;exitY=0.5;exitDx=0;exitDy=0;exitPerimeter=0;entryX=-0.017;entryY=0.809;entryDx=0;entryDy=0;entryPerimeter=0;strokeColor=#ff0000;" parent="1" source="4dMRSHH_C_iCPXwdmy3N-133" target="4dMRSHH_C_iCPXwdmy3N-137" edge="1">
          <mxGeometry relative="1" as="geometry" />
        </mxCell>
        <mxCell id="4dMRSHH_C_iCPXwdmy3N-133" value="1.6.2.&lt;div&gt;(4)&lt;/div&gt;" style="verticalLabelPosition=middle;verticalAlign=middle;html=1;shape=mxgraph.basic.patternFillRect;fillStyle=diag;step=5;fillStrokeWidth=0.2;fillStrokeColor=#dddddd;fillColor=#bac8d3;strokeColor=#23445d;align=center;labelPosition=center;" parent="1" vertex="1">
          <mxGeometry x="860" y="300" width="50" height="50" as="geometry" />
        </mxCell>
        <mxCell id="4dMRSHH_C_iCPXwdmy3N-134" style="edgeStyle=orthogonalEdgeStyle;rounded=0;orthogonalLoop=1;jettySize=auto;html=1;entryX=0;entryY=0.5;entryDx=0;entryDy=0;entryPerimeter=0;strokeColor=#ff0000;" parent="1" source="4dMRSHH_C_iCPXwdmy3N-126" target="4dMRSHH_C_iCPXwdmy3N-132" edge="1">
          <mxGeometry relative="1" as="geometry" />
        </mxCell>
        <mxCell id="4dMRSHH_C_iCPXwdmy3N-135" style="edgeStyle=orthogonalEdgeStyle;rounded=0;orthogonalLoop=1;jettySize=auto;html=1;exitX=1;exitY=0.5;exitDx=0;exitDy=0;exitPerimeter=0;entryX=0;entryY=0.5;entryDx=0;entryDy=0;entryPerimeter=0;" parent="1" source="4dMRSHH_C_iCPXwdmy3N-126" target="4dMRSHH_C_iCPXwdmy3N-129" edge="1">
          <mxGeometry relative="1" as="geometry" />
        </mxCell>
        <mxCell id="4dMRSHH_C_iCPXwdmy3N-136" style="edgeStyle=orthogonalEdgeStyle;rounded=0;orthogonalLoop=1;jettySize=auto;html=1;exitX=1;exitY=0.5;exitDx=0;exitDy=0;exitPerimeter=0;entryX=0;entryY=0.5;entryDx=0;entryDy=0;entryPerimeter=0;strokeColor=#ff0000;" parent="1" source="4dMRSHH_C_iCPXwdmy3N-126" target="4dMRSHH_C_iCPXwdmy3N-133" edge="1">
          <mxGeometry relative="1" as="geometry" />
        </mxCell>
        <mxCell id="4dMRSHH_C_iCPXwdmy3N-137" value="1.6.3.&lt;div&gt;(3&lt;span style=&quot;background-color: initial;&quot;&gt;)&lt;/span&gt;&lt;/div&gt;" style="verticalLabelPosition=middle;verticalAlign=middle;html=1;shape=mxgraph.basic.patternFillRect;fillStyle=diag;step=5;fillStrokeWidth=0.2;fillStrokeColor=#dddddd;fillColor=#bac8d3;strokeColor=#23445d;align=center;labelPosition=center;" parent="1" vertex="1">
          <mxGeometry x="970" y="270" width="50" height="50" as="geometry" />
        </mxCell>
        <mxCell id="4dMRSHH_C_iCPXwdmy3N-141" value="" style="edgeStyle=orthogonalEdgeStyle;rounded=0;orthogonalLoop=1;jettySize=auto;html=1;strokeColor=#f51800;" parent="1" source="4dMRSHH_C_iCPXwdmy3N-142" target="4dMRSHH_C_iCPXwdmy3N-144" edge="1">
          <mxGeometry relative="1" as="geometry" />
        </mxCell>
        <mxCell id="4dMRSHH_C_iCPXwdmy3N-142" value="1.1.1.&lt;div&gt;(1)&lt;/div&gt;" style="verticalLabelPosition=middle;verticalAlign=middle;html=1;shape=mxgraph.basic.patternFillRect;fillStyle=diag;step=5;fillStrokeWidth=0.2;fillStrokeColor=#dddddd;fillColor=#f8cecc;strokeColor=#b85450;align=center;labelPosition=center;" parent="1" vertex="1">
          <mxGeometry x="50" y="420" width="50" height="50" as="geometry" />
        </mxCell>
        <mxCell id="4dMRSHH_C_iCPXwdmy3N-143" value="" style="edgeStyle=orthogonalEdgeStyle;rounded=0;orthogonalLoop=1;jettySize=auto;html=1;strokeColor=#f50000;" parent="1" source="4dMRSHH_C_iCPXwdmy3N-144" target="4dMRSHH_C_iCPXwdmy3N-146" edge="1">
          <mxGeometry relative="1" as="geometry" />
        </mxCell>
        <mxCell id="4dMRSHH_C_iCPXwdmy3N-144" value="1.1.2.&lt;div&gt;(2.083)&lt;/div&gt;" style="verticalLabelPosition=middle;verticalAlign=middle;html=1;shape=mxgraph.basic.patternFillRect;fillStyle=diag;step=5;fillStrokeWidth=0.2;fillStrokeColor=#dddddd;fillColor=#f8cecc;strokeColor=#b85450;align=center;labelPosition=center;" parent="1" vertex="1">
          <mxGeometry x="140" y="420" width="50" height="50" as="geometry" />
        </mxCell>
        <mxCell id="4dMRSHH_C_iCPXwdmy3N-145" value="" style="edgeStyle=orthogonalEdgeStyle;rounded=0;orthogonalLoop=1;jettySize=auto;html=1;strokeColor=#ff2600;" parent="1" source="4dMRSHH_C_iCPXwdmy3N-146" target="4dMRSHH_C_iCPXwdmy3N-148" edge="1">
          <mxGeometry relative="1" as="geometry" />
        </mxCell>
        <mxCell id="4dMRSHH_C_iCPXwdmy3N-146" value="1.1.3.&lt;div&gt;(1.29)&lt;/div&gt;" style="verticalLabelPosition=middle;verticalAlign=middle;html=1;shape=mxgraph.basic.patternFillRect;fillStyle=diag;step=5;fillStrokeWidth=0.2;fillStrokeColor=#dddddd;fillColor=#f8cecc;strokeColor=#b85450;align=center;labelPosition=center;" parent="1" vertex="1">
          <mxGeometry x="230" y="420" width="50" height="50" as="geometry" />
        </mxCell>
        <mxCell id="4dMRSHH_C_iCPXwdmy3N-147" value="" style="edgeStyle=orthogonalEdgeStyle;rounded=0;orthogonalLoop=1;jettySize=auto;html=1;strokeColor=#ff0000;" parent="1" source="4dMRSHH_C_iCPXwdmy3N-148" target="4dMRSHH_C_iCPXwdmy3N-150" edge="1">
          <mxGeometry relative="1" as="geometry" />
        </mxCell>
        <mxCell id="4dMRSHH_C_iCPXwdmy3N-148" value="1.2.1.&lt;div&gt;(2)&lt;/div&gt;" style="verticalLabelPosition=middle;verticalAlign=middle;html=1;shape=mxgraph.basic.patternFillRect;fillStyle=diag;step=5;fillStrokeWidth=0.2;fillStrokeColor=#dddddd;fillColor=#dae8fc;strokeColor=#6c8ebf;align=center;labelPosition=center;" parent="1" vertex="1">
          <mxGeometry x="310" y="420" width="50" height="50" as="geometry" />
        </mxCell>
        <mxCell id="4dMRSHH_C_iCPXwdmy3N-149" value="" style="edgeStyle=orthogonalEdgeStyle;rounded=0;orthogonalLoop=1;jettySize=auto;html=1;strokeColor=#ff0000;" parent="1" source="4dMRSHH_C_iCPXwdmy3N-150" target="4dMRSHH_C_iCPXwdmy3N-152" edge="1">
          <mxGeometry relative="1" as="geometry" />
        </mxCell>
        <mxCell id="4dMRSHH_C_iCPXwdmy3N-150" value="1.2.2.&lt;div&gt;(1.5)&lt;/div&gt;" style="verticalLabelPosition=middle;verticalAlign=middle;html=1;shape=mxgraph.basic.patternFillRect;fillStyle=diag;step=5;fillStrokeWidth=0.2;fillStrokeColor=#dddddd;fillColor=#dae8fc;strokeColor=#6c8ebf;align=center;labelPosition=center;" parent="1" vertex="1">
          <mxGeometry x="390" y="420" width="50" height="50" as="geometry" />
        </mxCell>
        <mxCell id="4dMRSHH_C_iCPXwdmy3N-151" value="" style="edgeStyle=orthogonalEdgeStyle;rounded=0;orthogonalLoop=1;jettySize=auto;html=1;strokeColor=#ff0000;" parent="1" source="4dMRSHH_C_iCPXwdmy3N-152" target="4dMRSHH_C_iCPXwdmy3N-153" edge="1">
          <mxGeometry relative="1" as="geometry" />
        </mxCell>
        <mxCell id="4dMRSHH_C_iCPXwdmy3N-152" value="1.3.1.&lt;div&gt;(2.083)&lt;/div&gt;" style="verticalLabelPosition=middle;verticalAlign=middle;html=1;shape=mxgraph.basic.patternFillRect;fillStyle=diag;step=5;fillStrokeWidth=0.2;fillStrokeColor=#dddddd;fillColor=#d5e8d4;strokeColor=#82b366;align=center;labelPosition=center;" parent="1" vertex="1">
          <mxGeometry x="470" y="420" width="50" height="50" as="geometry" />
        </mxCell>
        <mxCell id="4dMRSHH_C_iCPXwdmy3N-153" value="1.3.2.&lt;div&gt;(1.58)&lt;/div&gt;" style="verticalLabelPosition=middle;verticalAlign=middle;html=1;shape=mxgraph.basic.patternFillRect;fillStyle=diag;step=5;fillStrokeWidth=0.2;fillStrokeColor=#dddddd;fillColor=#d5e8d4;strokeColor=#82b366;align=center;labelPosition=center;" parent="1" vertex="1">
          <mxGeometry x="550" y="420" width="50" height="50" as="geometry" />
        </mxCell>
        <mxCell id="4dMRSHH_C_iCPXwdmy3N-154" value="1.4.2.&lt;div&gt;(1.5)&lt;/div&gt;" style="verticalLabelPosition=middle;verticalAlign=middle;html=1;shape=mxgraph.basic.patternFillRect;fillStyle=diag;step=5;fillStrokeWidth=0.2;fillStrokeColor=#dddddd;fillColor=#ffe6cc;strokeColor=#d79b00;align=center;labelPosition=center;" parent="1" vertex="1">
          <mxGeometry x="630" y="420" width="50" height="50" as="geometry" />
        </mxCell>
        <mxCell id="4dMRSHH_C_iCPXwdmy3N-155" value="1.4.3.&lt;div&gt;(2.583)&lt;/div&gt;" style="verticalLabelPosition=middle;verticalAlign=middle;html=1;shape=mxgraph.basic.patternFillRect;fillStyle=diag;step=5;fillStrokeWidth=0.2;fillStrokeColor=#dddddd;fillColor=#ffe6cc;strokeColor=#d79b00;align=center;labelPosition=center;" parent="1" vertex="1">
          <mxGeometry x="710" y="420" width="50" height="50" as="geometry" />
        </mxCell>
        <mxCell id="4dMRSHH_C_iCPXwdmy3N-156" value="1.6.1.&lt;div&gt;(4.16)&lt;/div&gt;" style="verticalLabelPosition=middle;verticalAlign=middle;html=1;shape=mxgraph.basic.patternFillRect;fillStyle=diag;step=5;fillStrokeWidth=0.2;fillStrokeColor=#dddddd;align=center;labelPosition=center;fillColor=#bac8d3;strokeColor=#23445d;" parent="1" vertex="1">
          <mxGeometry x="790" y="420" width="50" height="50" as="geometry" />
        </mxCell>
        <mxCell id="4dMRSHH_C_iCPXwdmy3N-157" value="1.6.3.&lt;div&gt;(3.08)&lt;/div&gt;" style="verticalLabelPosition=middle;verticalAlign=middle;html=1;shape=mxgraph.basic.patternFillRect;fillStyle=diag;step=5;fillStrokeWidth=0.2;fillStrokeColor=#dddddd;fillColor=#bac8d3;strokeColor=#23445d;align=center;labelPosition=center;" parent="1" vertex="1">
          <mxGeometry x="870" y="420" width="50" height="50" as="geometry" />
        </mxCell>
        <mxCell id="4dMRSHH_C_iCPXwdmy3N-159" style="edgeStyle=orthogonalEdgeStyle;rounded=0;orthogonalLoop=1;jettySize=auto;html=1;exitX=1;exitY=0.5;exitDx=0;exitDy=0;exitPerimeter=0;entryX=0;entryY=0.5;entryDx=0;entryDy=0;entryPerimeter=0;strokeColor=#fa0000;" parent="1" source="4dMRSHH_C_iCPXwdmy3N-153" target="4dMRSHH_C_iCPXwdmy3N-154" edge="1">
          <mxGeometry relative="1" as="geometry" />
        </mxCell>
        <mxCell id="4dMRSHH_C_iCPXwdmy3N-160" style="edgeStyle=orthogonalEdgeStyle;rounded=0;orthogonalLoop=1;jettySize=auto;html=1;exitX=1;exitY=0.5;exitDx=0;exitDy=0;exitPerimeter=0;entryX=0;entryY=0.5;entryDx=0;entryDy=0;entryPerimeter=0;strokeColor=#ff0000;" parent="1" source="4dMRSHH_C_iCPXwdmy3N-154" target="4dMRSHH_C_iCPXwdmy3N-155" edge="1">
          <mxGeometry relative="1" as="geometry" />
        </mxCell>
        <mxCell id="4dMRSHH_C_iCPXwdmy3N-163" style="edgeStyle=orthogonalEdgeStyle;rounded=0;orthogonalLoop=1;jettySize=auto;html=1;exitX=1;exitY=0.5;exitDx=0;exitDy=0;exitPerimeter=0;entryX=0;entryY=0.5;entryDx=0;entryDy=0;entryPerimeter=0;strokeColor=#FF0000;" parent="1" source="4dMRSHH_C_iCPXwdmy3N-155" target="4dMRSHH_C_iCPXwdmy3N-156" edge="1">
          <mxGeometry relative="1" as="geometry" />
        </mxCell>
        <mxCell id="4dMRSHH_C_iCPXwdmy3N-164" style="edgeStyle=orthogonalEdgeStyle;rounded=0;orthogonalLoop=1;jettySize=auto;html=1;exitX=1;exitY=0.5;exitDx=0;exitDy=0;exitPerimeter=0;entryX=0;entryY=0.5;entryDx=0;entryDy=0;entryPerimeter=0;strokeColor=#FF0000;" parent="1" source="4dMRSHH_C_iCPXwdmy3N-156" target="4dMRSHH_C_iCPXwdmy3N-157" edge="1">
          <mxGeometry relative="1" as="geometry" />
        </mxCell>
        <mxCell id="BCwLYDvPOJBi0uMngpW8-1" value="&lt;p style=&quot;line-height: normal; margin: 0pt 0in; text-indent: 0in; direction: ltr; unicode-bidi: embed; word-break: normal;&quot;&gt;&lt;span style=&quot;font-size: 18pt; font-family: Calibri;&quot;&gt;05b.3&lt;br/&gt;Nokta Tahmini adlı dosyada aksiyonların isimleri yer almaktadır.&lt;/span&gt;&lt;/p&gt;" style="text;html=1;align=left;verticalAlign=middle;whiteSpace=wrap;rounded=0;" parent="1" vertex="1">
          <mxGeometry x="20" y="50" width="1320" height="30" as="geometry" />
        </mxCell>
        <mxCell id="BCwLYDvPOJBi0uMngpW8-3" style="edgeStyle=orthogonalEdgeStyle;rounded=0;orthogonalLoop=1;jettySize=auto;html=1;entryX=-0.017;entryY=0.555;entryDx=0;entryDy=0;entryPerimeter=0;strokeColor=#ff0000;" parent="1" source="4dMRSHH_C_iCPXwdmy3N-118" target="4dMRSHH_C_iCPXwdmy3N-124" edge="1">
          <mxGeometry relative="1" as="geometry" />
        </mxCell>
        <mxCell id="BCwLYDvPOJBi0uMngpW8-4" style="edgeStyle=orthogonalEdgeStyle;rounded=0;orthogonalLoop=1;jettySize=auto;html=1;entryX=0;entryY=0.5;entryDx=0;entryDy=0;entryPerimeter=0;" parent="1" source="4dMRSHH_C_iCPXwdmy3N-118" target="4dMRSHH_C_iCPXwdmy3N-120" edge="1">
          <mxGeometry relative="1" as="geometry" />
        </mxCell>
        <mxCell id="1dDCeN58bIth-3oSRB8--1" value="=17,69" style="text;html=1;align=center;verticalAlign=middle;whiteSpace=wrap;rounded=0;" vertex="1" parent="1">
          <mxGeometry x="920" y="430" width="60" height="30" as="geometry" />
        </mxCell>
      </root>
    </mxGraphModel>
  </diagram>
</mxfile>
